<svg width="32" height="32" viewBox="0 0 32 32" fill="none" xmlns="http://www.w3.org/2000/svg">
<path d="M30 14H18V2C18 1.46956 17.7892 0.96086 17.4142 0.58578C17.0392 0.21072 16.5304 0 16 0C15.4696 0 14.9608 0.21072 14.5858 0.58578C14.2108 0.96086 14 1.46956 14 2V14H2C1.46956 14 0.96086 14.2108 0.58578 14.5858C0.21072 14.9608 0 15.4696 0 16C0 16.5304 0.21072 17.0392 0.58578 17.4142C0.96086 17.7892 1.46956 18 2 18H14V30C14 30.5304 14.2108 31.0392 14.5858 31.4142C14.9608 31.7892 15.4696 32 16 32C16.5304 32 17.0392 31.7892 17.4142 31.4142C17.7892 31.0392 18 30.5304 18 30V18H30C30.5304 18 31.0392 17.7892 31.4142 17.4142C31.7892 17.0392 32 16.5304 32 16C32 15.4696 31.7892 14.9608 31.4142 14.5858C31.0392 14.2108 30.5304 14 30 14Z" fill="#F9FFFD"/>
</svg>
