<svg width="24" height="24" viewBox="0 0 24 24" fill="none" xmlns="http://www.w3.org/2000/svg">
<path d="M21.7099 2.28994C21.617 2.19621 21.5064 2.12182 21.3845 2.07105C21.2627 2.02028 21.132 1.99414 20.9999 1.99414C20.8679 1.99414 20.7372 2.02028 20.6154 2.07105C20.4935 2.12182 20.3829 2.19621 20.2899 2.28994L18.1699 4.40994L17.4599 3.70994C17.2726 3.52369 17.0191 3.41915 16.7549 3.41915C16.4908 3.41915 16.2373 3.52369 16.0499 3.70994L14.6399 5.11994L13.9299 4.40994C13.837 4.31621 13.7264 4.24182 13.6045 4.19105C13.4827 4.14028 13.352 4.11414 13.2199 4.11414C13.0879 4.11414 12.9572 4.14028 12.8354 4.19105C12.7135 4.24182 12.6029 4.31621 12.5099 4.40994L4.73994 12.1899L3.99994 11.4899C3.80585 11.3543 3.56991 11.2919 3.33414 11.3139C3.09837 11.3359 2.87806 11.4409 2.71243 11.6101C2.5468 11.7794 2.4466 12.0019 2.42966 12.2381C2.41273 12.4743 2.48015 12.7088 2.61994 12.8999L6.14994 16.4399L4.41994 18.1799L3.70994 17.4599C3.52164 17.2716 3.26624 17.1658 2.99994 17.1658C2.73364 17.1658 2.47824 17.2716 2.28994 17.4599C2.10164 17.6482 1.99585 17.9036 1.99585 18.1699C1.99585 18.4362 2.10164 18.6916 2.28994 18.8799L5.11994 21.7099C5.21338 21.8026 5.3242 21.8759 5.44603 21.9257C5.56787 21.9755 5.69833 22.0007 5.82994 21.9999C5.96155 22.0007 6.09201 21.9755 6.21385 21.9257C6.33569 21.8759 6.4465 21.8026 6.53994 21.7099C6.63367 21.617 6.70806 21.5064 6.75883 21.3845C6.8096 21.2627 6.83574 21.132 6.83574 20.9999C6.83574 20.8679 6.8096 20.7372 6.75883 20.6154C6.70806 20.4935 6.63367 20.3829 6.53994 20.2899L5.82994 19.5899L7.56994 17.8499L11.0999 21.3799C11.1926 21.4744 11.303 21.5496 11.4249 21.6011C11.5468 21.6526 11.6776 21.6794 11.8099 21.6799C12.0077 21.6791 12.2008 21.6197 12.3648 21.5091C12.5288 21.3985 12.6563 21.2418 12.7312 21.0588C12.8061 20.8758 12.8251 20.6746 12.7857 20.4808C12.7463 20.287 12.6504 20.1092 12.5099 19.9699L11.8099 19.2599L19.5899 11.4899C19.6837 11.397 19.7581 11.2864 19.8088 11.1645C19.8596 11.0427 19.8857 10.912 19.8857 10.7799C19.8857 10.6479 19.8596 10.5172 19.8088 10.3954C19.7581 10.2735 19.6837 10.1629 19.5899 10.0699L18.8799 9.35994L20.2899 7.99994C20.4762 7.81258 20.5807 7.55912 20.5807 7.29494C20.5807 7.03075 20.4762 6.7773 20.2899 6.58994L19.5899 5.87994L21.7099 3.75994C21.8114 3.6663 21.8925 3.55264 21.9479 3.42615C22.0033 3.29965 22.0319 3.16304 22.0319 3.02494C22.0319 2.88684 22.0033 2.75023 21.9479 2.62373C21.8925 2.49723 21.8114 2.38358 21.7099 2.28994V2.28994ZM7.56994 14.9999L6.14994 13.6099L7.55994 12.1899L8.99994 13.6099L7.56994 14.9999ZM10.3899 17.8299L8.99994 16.4399L10.3899 14.9999L11.8099 16.4199L10.3899 17.8299ZM13.2199 14.9999L8.99994 10.7799L13.2399 6.53994L13.9499 7.23994L17.4799 10.7799L13.2199 14.9999ZM17.4599 7.99994L16.0499 6.53994L16.7599 5.82994L17.4599 6.52994L18.1599 7.22994L17.4599 7.99994Z" fill="white"/>
</svg>
