<svg width="24" height="24" viewBox="0 0 24 24" fill="none" xmlns="http://www.w3.org/2000/svg">
<path d="M20.4699 7.37005C20.4699 7.37005 20.4699 7.37005 20.4699 7.29005L20.4099 7.14005C20.389 7.10822 20.3656 7.07812 20.3399 7.05005C20.3131 7.00772 20.283 6.96759 20.2499 6.93005L20.1599 6.86005L19.9999 6.78005L12.4999 2.15005C12.341 2.05072 12.1573 1.99805 11.9699 1.99805C11.7825 1.99805 11.5988 2.05072 11.4399 2.15005L3.9999 6.78005L3.9099 6.86005L3.8199 6.93005C3.78675 6.96759 3.75666 7.00772 3.7299 7.05005C3.70419 7.07812 3.68078 7.10822 3.6599 7.14005L3.5999 7.29005C3.5999 7.29005 3.5999 7.29005 3.5999 7.37005C3.59007 7.45644 3.59007 7.54366 3.5999 7.63005V16.3701C3.59956 16.54 3.64254 16.7072 3.72477 16.8559C3.80701 17.0047 3.92579 17.13 4.0699 17.22L11.5699 21.85C11.6161 21.8786 11.6668 21.8989 11.7199 21.91C11.7199 21.91 11.7699 21.91 11.7999 21.91C11.9691 21.9637 12.1507 21.9637 12.3199 21.91C12.3199 21.91 12.3699 21.91 12.3999 21.91C12.453 21.8989 12.5037 21.8786 12.5499 21.85L19.9999 17.22C20.144 17.13 20.2628 17.0047 20.345 16.8559C20.4273 16.7072 20.4702 16.54 20.4699 16.3701V7.63005C20.4797 7.54366 20.4797 7.45644 20.4699 7.37005ZM10.9999 19.21L5.4999 15.8101V9.43005L10.9999 12.82V19.21ZM11.9999 11.09L6.3999 7.63005L11.9999 4.18005L17.5999 7.63005L11.9999 11.09ZM18.4999 15.8101L12.9999 19.21V12.82L18.4999 9.43005V15.8101Z" fill="black"/>
</svg>
